<svg width="32" height="32" viewBox="0 0 32 32" fill="none" xmlns="http://www.w3.org/2000/svg">
  <!-- 四叶草图标 -->
  <g transform="translate(16,16)">
    <!-- 上叶 -->
    <path d="M0,-12 C-4,-12 -6,-8 -6,-4 C-6,-2 -4,0 0,0 C4,0 6,-2 6,-4 C6,-8 4,-12 0,-12 Z" fill="#22c55e"/>
    <!-- 右叶 -->
    <path d="M12,0 C12,-4 8,-6 4,-6 C2,-6 0,-4 0,0 C0,4 2,6 4,6 C8,6 12,4 12,0 Z" fill="#22c55e"/>
    <!-- 下叶 -->
    <path d="M0,12 C4,12 6,8 6,4 C6,2 4,0 0,0 C-4,0 -6,2 -6,4 C-6,8 -4,12 0,12 Z" fill="#22c55e"/>
    <!-- 左叶 -->
    <path d="M-12,0 C-12,4 -8,6 -4,6 C-2,6 0,4 0,0 C0,-4 -2,-6 -4,-6 C-8,-6 -12,-4 -12,0 Z" fill="#22c55e"/>
    <!-- 中心茎 -->
    <circle cx="0" cy="0" r="2" fill="#16a34a"/>
  </g>
</svg>
